<svg xmlns="http://www.w3.org/2000/svg" viewBox="0 0 218 218">
  <path fill="#06c" fill-rule="evenodd" d="M28.75 1.09C18.38 3.53 8.12 12.16 3.3 22.5l-2.8 6-.28 78.47c-.27 76.44-.23 78.65 1.75 85 3.58 11.51 11.4 19.78 22.73 24.02 5.4 2.02 6.88 2.05 86.15 1.78l80.65-.27 5.65-2.86c7.01-3.56 13.84-10.43 17.54-17.64l2.81-5.5.27-80.65c.27-79.27.24-80.75-1.78-86.15-4.21-11.25-12.46-19.1-23.85-22.7-6.14-1.93-8.92-2-83-1.9-42.15.06-78.33.5-80.39.99m113.55 55.4c18.53 4.83 32.53 18.6 38.14 37.51 2.07 7.01 2.12 21.61.08 29.33-3.63 13.77-13.21 26.58-24.24 32.42-12.66 6.69-16.38 7.25-48.45 7.25-18.05 0-29.69-.39-30.9-1.04-2.19-1.17-2.63-5.86-.73-7.76.81-.81 5.47-1.2 14.43-1.2 14.32 0 16.37-.69 16.37-5.49 0-5.04-.73-5.5-8.86-5.6-4.2-.05-9.89-.38-12.64-.75-4.75-.63-5.02-.82-5.31-3.91-.27-2.73.11-3.41 2.31-4.25 3.38-1.29 31.57-1.31 34.93-.02 2.25.85 2.57 1.55 2.57 5.64v4.67l7.89-.66c19.59-1.63 28.98-8.14 32.69-22.63 3.13-12.19.4-26.34-6.62-34.31-4.9-5.57-11.63-8.51-22.26-9.73-11.99-1.38-11.54-1.49-11.89 2.79l-.31 3.75-15.7.28c-14.89.26-15.76.17-16.79-1.75A3.8 3.8 0 0 1 87 77c.96-1.79 2.09-2 11.04-2 8.63 0 10.23-.27 11.96-2 2.37-2.37 2.5-3.93.58-6.56-1.29-1.77-3.09-1.98-20.54-2.44-15.52-.41-19.3-.78-20.06-2-1.36-2.15-1.2-3.64.59-5.43 2.27-2.27 63.07-2.34 71.73-.08m-82.94.79c2.39 1.74 1.16 4.45-2.38 5.23-3.16.69-6.98-.87-6.98-2.85 0-3.41 5.9-4.92 9.36-2.38m19.03 19.97c.8 1.27.8 2.23 0 3.5-.93 1.48-2.96 1.8-13 2.04-14.97.36-16.39.04-16.39-3.73 0-1.59.56-3.13 1.25-3.41s7.05-.44 14.14-.34c11.07.16 13.05.44 14 1.94M117.5 94c2.19.83 2.58 1.53 2.31 4.19-.44 4.5-3.41 5.03-26.03 4.64-20.04-.35-20.73-.53-20.76-5.38C72.98 93.3 74.47 93 95.13 93c10.86 0 20.92.45 22.37 1m-54.08 1.32c.99.72 1.63 2.18 1.43 3.25-.33 1.7-1.26 1.93-7.86 1.93-7.13 0-7.51-.11-7.83-2.39-.18-1.31.27-2.77 1-3.23 2.09-1.33 11.26-1.02 13.26.44m-13.35 18.72c2.18 1.16 2.53 3.96.73 5.76-1.26 1.26-7.53 1.63-10.22.59-1.86-.71-2.09-4.48-.38-6.19 1.47-1.47 7.24-1.57 9.87-.16m45.36-.06c1.74.66 2.57 1.72 2.57 3.3 0 4.4-1.34 4.72-20.13 4.72-14.78 0-17.99-.26-19.3-1.57-2.17-2.17-1.96-4.04.65-5.87 1.79-1.25 5.33-1.56 17.94-1.56 8.64 0 16.86.44 18.27.98m24 .59c3.97 3.98.52 7.43-7.43 7.43-5.93 0-9-1.54-9-4.5s3.07-4.5 9-4.5c3.99 0 6.36.5 7.43 1.57M70.5 136.93c0 2.89-4.09 4.45-9.3 3.54-3.46-.61-4.82-2.4-3.82-5.02.47-1.21 1.94-1.48 6.86-1.25 5.88.28 6.26.45 6.26 2.73m-6.68 17.65c.78.24 1.19 1.53 1 3.16-.32 2.76-.33 2.76-8.32 2.76h-8v-2.99c0-2.52.48-3.09 3-3.62 2.83-.59 9.41-.22 12.32.69"/>
  <path fill="#fff" fill-rule="evenodd" d="M.1 16.25c.07 11.77.34 15.21.99 12.5C4.08 16.03 16.02 4.08 28.73 1.09 31.47.44 28.05.17 16.25.1L0 0zM192.5 2.06c11.09 3.6 19.34 11.55 23.49 22.64 2.02 5.4 2.05 6.88 1.78 86.15l-.27 80.65-2.81 5.5c-3.7 7.21-10.53 14.08-17.54 17.64l-5.65 2.86-80.65.27c-79.27.27-80.75.24-86.15-1.78-11.09-4.15-19.04-12.4-22.64-23.49l-1.95-6-.05 34.75L0 256h256V0l-34.75.06-34.75.05zM70.57 56.57c-1.79 1.79-1.95 3.28-.59 5.43.76 1.22 4.54 1.59 20.06 2 17.45.46 19.25.67 20.54 2.44 1.92 2.63 1.79 4.19-.58 6.56-1.73 1.73-3.33 2-11.96 2-8.95 0-10.08.21-11.04 2a3.8 3.8 0 0 0 .01 4.03c1.03 1.92 1.9 2.01 16.79 1.75l15.7-.28.31-3.75c.35-4.28-.1-4.17 11.89-2.79 19.36 2.22 28.33 11.37 29.95 30.54.72 8.47-1.47 18.17-5.37 23.81-4.82 6.96-14.5 11.16-28.39 12.32l-7.89.66v-4.67c0-4.09-.32-4.79-2.57-5.64-3.36-1.29-31.55-1.27-34.93.02-2.2.84-2.58 1.52-2.31 4.25.29 3.09.56 3.28 5.31 3.91 2.75.37 8.44.7 12.64.75 8.13.1 8.86.56 8.86 5.6 0 4.8-2.05 5.49-16.37 5.49-8.96 0-13.62.39-14.43 1.2-1.9 1.9-1.46 6.59.73 7.76 1.21.65 12.85 1.04 30.9 1.04 26.56 0 29.53-.17 35.81-2.1 19.36-5.92 31.91-18.71 36.88-37.57 2.04-7.72 1.99-22.32-.08-29.33-5.61-18.91-19.61-32.68-38.14-37.51-8.66-2.26-69.46-2.19-71.73.08m-19.37.63c-1.78 1.78-1.46 3.59.86 4.83 2.63 1.41 7.58.34 8.41-1.81 1.28-3.34-6.44-5.85-9.27-3.02m-.95 18.45c-.69.28-1.25 1.82-1.25 3.41 0 3.77 1.42 4.09 16.39 3.73 10.04-.24 12.07-.56 13-2.04.8-1.27.8-2.23 0-3.5-.95-1.5-2.93-1.78-14-1.94-7.09-.1-13.45.05-14.14.34M74.2 94.2c-1.43 1.43-1.54 4.72-.22 6.8.77 1.23 4.38 1.56 19.8 1.83 22.62.39 25.59-.14 26.03-4.64.27-2.66-.12-3.36-2.31-4.19-3.9-1.48-41.79-1.31-43.3.2m-24.04.68c-.73.46-1.18 1.92-1 3.23.32 2.28.7 2.39 7.83 2.39 6.6 0 7.53-.23 7.86-1.93.2-1.07-.44-2.53-1.43-3.25-2-1.46-11.17-1.77-13.26-.44M40.2 114.2c-1.71 1.71-1.48 5.48.38 6.19 2.69 1.04 8.96.67 10.22-.59 1.8-1.8 1.45-4.6-.73-5.76-2.63-1.41-8.4-1.31-9.87.16m19.02.36c-2.61 1.83-2.82 3.7-.65 5.87 1.31 1.31 4.52 1.57 19.3 1.57 18.79 0 20.13-.32 20.13-4.72 0-3.57-3.47-4.28-20.84-4.28-12.61 0-16.15.31-17.94 1.56m45.35.01c-.86.87-1.57 2.18-1.57 2.93s.71 2.06 1.57 2.93c2.17 2.17 12.69 2.17 14.86 0 3.97-3.98.52-7.43-7.43-7.43-3.99 0-6.36.5-7.43 1.57m-47.19 20.88c-1 2.62.36 4.41 3.82 5.02 5.21.91 9.3-.65 9.3-3.54 0-2.28-.38-2.45-6.26-2.73-4.92-.23-6.39.04-6.86 1.25m-5.88 18.44c-2.52.53-3 1.1-3 3.62v2.99h8c7.99 0 8 0 8.32-2.76.19-1.63-.22-2.92-1-3.16-2.91-.91-9.49-1.28-12.32-.69"/>
</svg>