<svg xmlns="http://www.w3.org/2000/svg" viewBox="0 0 515 391">
  <path fill-rule="evenodd" d="M131.71 15.07c-10.65 5.67-10.5 22.26.25 27.68C136.42 45 136.42 45 194.83 45c57.05 0 58.48.05 62.05 2.05 11.81 6.64 11.81 24.26 0 30.9-3.47 1.95-5.24 2.05-35.02 2.06-29.04 0-31.57.14-34.22 1.89-9.39 6.19-8.81 20.9 1.01 25.6 2.67 1.27 10.5 1.5 51.33 1.5 57.97 0 54.02 1.21 54.02-16.58V81.68l21.75.63c78.33 2.25 115.16 36.67 117.93 110.19 2.81 74.57-36.87 113.34-117.93 115.23l-22.75.52v-15.17c0-22.47 7.88-20.08-66.07-20.08-61.17 0-61.17 0-65.05 3.88-6.5 6.51-5.09 21.06 2.46 25.38 1.57.9 12.53 1.38 39.84 1.74 36.34.48 37.78.57 40.5 2.6 9.84 7.35 9.34 24.95-.92 32.07-4.09 2.83-4.09 2.83-48.86 3.33s-44.77.5-47.81 3.41c-8.05 7.72-6.6 21.88 2.9 28.34 4.98 3.39 188.6 3.56 204.06.19 61.47-13.42 95.95-36.86 124.17-84.44 25.55-43.07 32.3-104.46 16.69-151.75-20.88-63.26-66.63-105.14-132.76-121.54-14.97-3.71-223.67-4.74-230.44-1.14m-69.94 5.85c-4.74 4.23-4.74 10.93 0 15.16 5.03 4.5 24.43 4.5 29.46 0 4.74-4.23 4.74-10.93 0-15.16-5.03-4.5-24.43-4.5-29.46 0m-.53 61.07c-6.82 4.16-9.12 12.41-5.25 18.77 4.48 7.34 3.76 7.23 49.01 7.23 38.38 0 40.67-.1 43.7-1.95 9.17-5.59 9.38-17.77.4-23.77-5-3.34-82.43-3.58-87.86-.28m82.97 60.67c-11.76 5.83-11.93 23.36-.29 29.3 6.57 3.35 136.56 3.14 142.58-.23 10.22-5.72 10.97-20.98 1.37-27.83-4.46-3.18-137.44-4.33-143.66-1.24m-82.71 3.26c-7.63 3.28-9.6 13.45-3.73 19.31 3.27 3.27 3.27 3.27 23.73 3.27 24.05 0 27-1.26 27-11.5 0-10.08-3.04-11.46-25.77-11.72-10.58-.12-20.13.17-21.23.64m183.26 64.14c-10.1 5.33-9.97 20.73.21 25.93 3.53 1.8 5.88 2.01 22.1 2.01 20.81 0 24.38-1.05 28.03-8.2 3.73-7.3 1.24-15.55-5.88-19.56-5.73-3.22-38.45-3.35-44.46-.18M27 210.71c-9.28 4.74-8.83 18.95.72 22.95 5.83 2.43 30.2 1.54 33.96-1.25 6.57-4.87 6.57-15.95 0-20.82-4.05-3-29.27-3.64-34.68-.88m64.07.04c-5.32 2.72-7.57 6.5-7.57 12.75s2.25 10.03 7.57 12.75c4.67 2.38 115.7 2.71 121.31.36 10.75-4.49 11.09-20.48.55-25.86-5.26-2.68-116.6-2.68-121.86 0m-1.57 67.17c-7.63 3.29-9.6 13.45-3.73 19.31 3.27 3.27 3.27 3.27 19.73 3.27 19.66 0 23-1.67 23-11.5 0-9.61-3.42-11.45-21.77-11.72-8.37-.12-16.13.16-17.23.64M58 345.72c-9.26 4.71-8.84 18.94.68 22.92 6.04 2.52 43.25 1.55 47-1.23 6.57-4.87 6.57-15.95 0-20.82-4.07-3.02-42.09-3.71-47.68-.87"/>
</svg>