<svg xmlns="http://www.w3.org/2000/svg" viewBox="0 0 1000 194">
  <path fill-rule="evenodd" d="M862.47 6.22c-.27.7-.37 41.33-.23 90.28.26 89 .26 89 12.92 89.28 14.32.31 12.83 1.36 14.35-10.14.65-4.86.65-4.86 3.32-2.4 16.67 15.38 43.74 18.57 64.36 7.58 39.29-20.95 38.43-96.89-1.32-116.2a57.3 57.3 0 0 0-59.61 5.52c-5.23 3.9-5.23 3.9-5.5-30.37S890.5 5.5 876.73 5.22c-10.46-.21-13.89.03-14.26 1M545 98c0 88.05 0 88.05 14.75 87.78 14.75-.28 14.75-.28 15.01-38.53S575.02 109 616 109s40.98 0 41.24 38.25.26 38.25 14.76 38.25 14.5 0 14.5-87.5 0-87.5-14.5-87.5-14.5 0-14.76 37.25S656.98 85 616 85s-40.98 0-41.24-37.25-.26-37.25-15.01-37.53C545 9.95 545 9.95 545 98M62 14a7.53 7.53 0 0 0 .63 10.93C65.16 26.92 66.45 27 94.18 27c28.91 0 28.91 0 31.37 2.45a8.6 8.6 0 0 1 0 12.1c-2.41 2.4-2.81 2.45-18.43 2.45-15.97 0-15.97 0-18.05 2.63-2.72 3.47-2.61 5.92.38 8.92C91.91 58 91.91 58 115.38 58c26.96 0 26.62.1 26.62-8.07 0-4.93 0-4.93 10.25-4.91 38.47.06 58 20.63 56.47 59.48-1.27 32.29-19.89 48.8-55.22 48.95-12 .05-12 .05-12.3-6.91-.17-3.83-.78-7.54-1.37-8.25-.83-1-7.66-1.29-30.45-1.29-33 0-33.38.08-33.38 7.31 0 7.03 1.85 7.69 21.49 7.69 11.08 0 18.34.42 19.96 1.16 4.9 2.23 5.38 11.25.79 14.86-2.31 1.83-4.1 1.98-22.94 1.98-24.91 0-26.25.44-26.28 8.68-.04 8.56-1.51 8.32 50.99 8.32 45.49 0 45.79-.01 55.59-2.5 19.02-4.83 28.06-9.28 38.12-18.8 51.8-48.97 31.21-134.45-36.55-151.78C165.35 10.89 65.03 10.97 62 14m-32.31 1.79C25.58 20.33 28.8 24 36.92 24c7.47 0 10.42-2.51 8.01-6.82-1.99-3.56-12.41-4.52-15.24-1.39m-1.65 30.4c-2.44 2.61-2.6 5.56-.48 8.59 2.21 3.15 42.97 3.5 45.79.39 2.24-2.48 2.08-6.74-.35-9.17-3.23-3.23-41.93-3.06-44.96.19m278.6 14.4c-20.62 4.99-37.37 21.81-43.23 43.41-2.44 9-2.42 28.02.04 37.5 5.68 21.93 21.45 38.2 42.24 43.57 22.17 5.73 46.18.47 60.96-13.36 6.19-5.79 13.13-15.26 12.01-16.38-1.74-1.74-24.19-8.2-24.56-7.06-.82 2.5-7.76 8.14-13.1 10.65-8.24 3.87-25.15 3.82-32.56-.09-8.27-4.37-16.44-15.98-16.44-23.37 0-1.26 6.1-1.46 44.36-1.46 44.37 0 44.37 0 45-4.64 6.17-44.95-31.17-79.32-74.72-68.77m88.85 2.16c1.81 4.47 11.92 31.05 25 65.75 7.88 20.9 16.01 42.4 18.07 47.77 3.73 9.78 3.73 9.78 19.28 9.5 17.26-.3 12.28 8.77 50.62-92.27 5.43-14.3 10.48-27.47 11.23-29.28 1.36-3.27 1.36-3.27-13.82-3-16.96.31-12.42-7.75-39.39 70.03-4.34 12.51-8.18 22.75-8.54 22.75-.56 0-12.74-34.8-28.25-80.75C425.55 61 425.55 61 410.17 61c-14.25 0-15.33.13-14.68 1.75m324.76 41.5c.54 54.44 1.61 59.19 16.26 72.58 15.15 13.85 46.85 13.82 61.23-.07 3.82-3.69 3.72-3.76 4.86 3.24.9 5.5.9 5.5 13.65 5.78s12.75.28 12.75-62.25S829 61 815 61s-14 0-14.01 37.75c-.02 44.38-.73 49.03-8.65 56.39-10.54 9.78-30.83 8.69-38.06-2.05-4.96-7.36-5.28-10.56-5.28-52.77C749 61 749 61 734.41 61s-14.59 0-14.16 43.25M67.84 76c-2.58 2.58-2.97 3.6-2.45 6.29 1.3 6.75 1.07 6.71 38.55 6.71 33.71 0 33.71 0 35.89-2.31 2.7-2.88 2.82-7.67.26-10.83-1.91-2.36-1.91-2.36-35.54-2.65S70.92 72.92 67.84 76M28 77c-5.78 5.78-.97 10 11.43 10C49.94 87 52 86.01 52 80.99 52 76.38 48.96 75 38.78 75c-7.45 0-9.08.3-10.78 2m305.75 9c8.49 3.75 15.49 12.38 16.83 20.75.68 4.25.68 4.25-28.95 4.25-16.3 0-29.63-.21-29.63-.47 0-.25.73-2.61 1.62-5.25 6.04-17.77 24-26.4 40.13-19.28m598.32-.4c18.94 5.56 28.97 29.43 22.01 52.35-9.12 30.03-49.13 32.15-60.16 3.2-2.62-6.86-3.66-21.49-2.06-28.93 4.35-20.26 22.02-31.97 40.21-26.62M12 108a6.23 6.23 0 0 0 0 9c2.58 2.58 14.31 2.87 17.78.44 3.06-2.14 3.06-7.74 0-9.88-3.47-2.43-15.2-2.14-17.78.44m30.45.45c-2.99 3-3.1 5.45-.38 8.92C44.15 120 44.15 120 73.42 120c32.59 0 32.58 0 32.58-6.83 0-7.04-.59-7.17-32.55-7.17-28.54 0-28.54 0-31 2.45m74.04-.44a8.6 8.6 0 0 0-1.82 4.99c0 5.8 2.39 7 13.98 7 11.67 0 14.35-1.31 14.35-7s-2.68-7-14.35-7c-9.09 0-10.56.24-12.16 2.01m-74.84 32.82c-4.88 5.4-.5 10.17 9.35 10.17 7.78 0 11-1.73 11-5.9 0-4.65-2.66-6.1-11.17-6.1-6.02 0-7.85.37-9.18 1.83M28 172.29c-1.86.93-2.58 2.19-2.8 4.89-.47 5.56 2.07 6.82 13.8 6.82s14.27-1.26 13.8-6.82c-.41-4.93-3.15-6.15-13.8-6.15-4.84 0-9.58.54-11 1.26"/>
</svg>